<svg version="1.2" baseProfile="tiny-ps" xmlns="http://www.w3.org/2000/svg" viewBox="0 0 12 10" width="12" height="10">
	<title>Home v2_colours</title>
	<style>
		tspan { white-space:pre }
		.shp0 { fill: #73a9b0 } 
	</style>
	<g id="Home v2_colours">
		<g id="sidebar">
			<g id="sidebar-DEMENZWIKI">
				<g id="wiki-04">
					<g id="icon_wiki04">
						<path id="Shape" fill-rule="evenodd" class="shp0" d="M11.5 2.44L11.5 8.35C11.5 8.53 11.37 8.67 11.2 8.68C9.91 8.77 7.76 8.78 6.13 9.47C6.13 9.47 6.13 9.47 6.13 9.47C6.13 9.47 6.13 9.47 6.13 9.47C6.13 9.47 6.13 9.47 6.13 9.47C6.14 9.47 6.02 9.54 5.87 9.47C4.24 8.78 2.09 8.77 0.8 8.68C0.63 8.67 0.5 8.53 0.5 8.35L0.5 2.44C0.5 2.25 0.65 2.11 0.83 2.11C1.19 2.12 1.53 2.13 1.88 2.14L1.88 0.82C1.88 0.63 2.04 0.49 2.23 0.5C3.48 0.6 5.06 1.16 6 2.16C6.94 1.16 8.52 0.6 9.77 0.5C9.96 0.49 10.12 0.63 10.12 0.82L10.12 2.11C10.74 2.1 11.17 2.11 11.19 2.11C11.36 2.12 11.5 2.26 11.5 2.44ZM9.47 1.19C8.37 1.36 7.03 1.89 6.32 2.78C6.32 2.93 6.32 8.08 6.32 8.37C7.36 7.42 8.54 6.97 9.47 6.76L9.47 1.19ZM2.53 6.76C3.46 6.97 4.64 7.42 5.68 8.37L5.68 2.78C4.97 1.89 3.63 1.36 2.53 1.19L2.53 6.76ZM4.74 8.44C3.84 7.79 2.88 7.49 2.15 7.35C1.99 7.32 1.88 7.18 1.88 7.03L1.88 2.79C1.63 2.78 1.38 2.78 1.15 2.77L1.15 8.05C2.13 8.1 3.46 8.15 4.74 8.44ZM10.85 8.05L10.85 2.75C10.67 2.75 10.42 2.75 10.12 2.76L10.12 7.03C10.12 7.18 10.01 7.32 9.85 7.35C9.12 7.49 8.16 7.79 7.26 8.44C8.54 8.15 9.88 8.1 10.85 8.05Z" />
						<path id="Path" class="shp0" d="M4.83 3.44C4.53 3.28 4.01 3.08 3.45 3C3.24 2.98 3.04 3.09 3.01 3.25C2.97 3.42 3.11 3.58 3.32 3.61C3.75 3.66 4.17 3.82 4.39 3.95C4.56 4.04 4.81 4.01 4.93 3.87C5.05 3.73 5.01 3.54 4.83 3.44L4.83 3.44Z" />
						<path id="Path" class="shp0" d="M4.81 5.44C4.53 5.3 3.98 5.07 3.46 5C3.24 4.98 3.04 5.09 3.01 5.25C2.97 5.42 3.11 5.58 3.33 5.6C3.74 5.66 4.21 5.87 4.4 5.95C4.59 6.04 4.83 6 4.94 5.85C5.06 5.71 5 5.52 4.81 5.44L4.81 5.44Z" />
						<path id="Path" class="shp0" d="M7.61 3.95C7.83 3.82 8.25 3.66 8.67 3.61C8.89 3.58 9.03 3.42 8.99 3.25C8.96 3.09 8.76 2.98 8.55 3C7.99 3.08 7.47 3.28 7.17 3.44C6.99 3.54 6.95 3.73 7.07 3.87C7.19 4.01 7.44 4.04 7.61 3.95L7.61 3.95Z" />
						<path id="Path" class="shp0" d="M8.54 5C8.02 5.07 7.47 5.3 7.19 5.44C7 5.52 6.94 5.71 7.06 5.85C7.17 6 7.41 6.04 7.6 5.95C7.79 5.87 8.26 5.66 8.67 5.6C8.89 5.58 9.03 5.42 8.99 5.25C8.96 5.09 8.75 4.98 8.54 5L8.54 5Z" />
					</g>
				</g>
			</g>
		</g>
	</g>
</svg>