<svg version="1.2" baseProfile="tiny-ps" xmlns="http://www.w3.org/2000/svg" viewBox="0 0 14 11" width="14" height="11">
	<title>Home v2_colours</title>
	<style>
		tspan { white-space:pre }
		.shp0 { fill: #73a9b0 } 
	</style>
	<g id="Home v2_colours">
		<g id="sidebar">
			<g id="sidebar-DEMENZWIKI">
				<g id="wiki-06">
					<g id="icon_wiki06">
						<path id="Shape" fill-rule="evenodd" class="shp0" d="M12.59 3.18L12.59 6.95C13.03 7.11 13.35 7.54 13.35 8.04C13.35 8.55 13.03 8.98 12.59 9.14L12.59 10.61C12.59 10.83 12.41 11 12.2 11C11.99 11 11.82 10.83 11.82 10.61L11.82 9.14C11.38 8.98 11.06 8.55 11.06 8.04C11.06 7.54 11.38 7.11 11.82 6.95L11.82 3.45L10.82 3.81L10.82 6.33C10.82 6.75 10.39 7.1 9.55 7.38C8.82 7.62 7.91 7.76 7 7.76C6.09 7.76 5.18 7.62 4.45 7.38C3.61 7.1 3.18 6.75 3.18 6.33L3.18 3.81L0.75 2.94C0.6 2.89 0.5 2.74 0.5 2.58C0.5 2.41 0.6 2.27 0.75 2.21L6.87 0.02C6.96 -0.01 7.04 -0.01 7.13 0.02L13.25 2.21C13.4 2.27 13.5 2.41 13.5 2.58C13.5 2.74 13.4 2.89 13.25 2.94L12.59 3.18ZM12.59 8.04C12.59 7.83 12.42 7.65 12.2 7.65C11.99 7.65 11.82 7.83 11.82 8.04C11.82 8.26 11.99 8.43 12.2 8.43C12.42 8.43 12.59 8.26 12.59 8.04ZM2.02 2.58L7 4.37L11.98 2.58L7 0.8L2.02 2.58ZM10.06 6.28L10.06 4.09L7.13 5.15C7.09 5.16 7.04 5.17 7 5.17C6.96 5.17 6.91 5.16 6.87 5.15L3.94 4.09L3.94 6.28C4.01 6.35 4.27 6.53 4.86 6.7C5.49 6.88 6.25 6.98 7 6.98C7.75 6.98 8.51 6.88 9.14 6.7C9.73 6.53 9.99 6.35 10.06 6.28Z" />
					</g>
				</g>
			</g>
		</g>
	</g>
</svg>