<svg version="1.2" baseProfile="tiny-ps" xmlns="http://www.w3.org/2000/svg" viewBox="0 0 14 11" width="14" height="11">
	<title>Home v2_colours</title>
	<style>
		tspan { white-space:pre }
		.shp0 { fill: #73a9b0 } 
	</style>
	<g id="Home v2_colours">
		<g id="sidebar">
			<g id="sidebar-BRENNPUNKT">
				<g id="icon_dossier">
					<path id="Shape" fill-rule="evenodd" class="shp0" d="M13.39 6.01L11.25 10.29L11.25 10.29C11.18 10.41 11.06 10.5 10.91 10.5L1.32 10.5C0.87 10.5 0.5 10.15 0.5 9.71L0.5 1.27C0.5 0.84 0.86 0.5 1.31 0.5L4.39 0.5C4.65 0.5 4.9 0.62 5.05 0.83L5.9 2.01C5.9 2.01 5.9 2.01 5.91 2.01L10.64 2.01C11.09 2.01 11.45 2.36 11.45 2.78L11.45 4.54L12.41 4.54C12.8 4.54 13.15 4.73 13.35 5.05C13.53 5.34 13.55 5.7 13.39 6.01ZM1.26 1.27L1.26 8.42L2.8 5.15C2.98 4.78 3.37 4.54 3.79 4.54L10.69 4.54L10.69 2.78C10.68 2.78 10.67 2.77 10.64 2.77L5.91 2.77C5.66 2.77 5.42 2.65 5.28 2.45L4.43 1.27C4.42 1.27 4.41 1.26 4.39 1.26L1.31 1.26C1.28 1.26 1.27 1.27 1.26 1.27ZM12.7 5.44C12.64 5.35 12.54 5.3 12.41 5.3L3.79 5.3C3.66 5.3 3.54 5.37 3.49 5.47L1.48 9.74L10.67 9.74L12.71 5.68C12.76 5.58 12.73 5.5 12.7 5.44Z" />
				</g>
			</g>
		</g>
	</g>
</svg>