<svg version="1.2" baseProfile="tiny-ps" xmlns="http://www.w3.org/2000/svg" viewBox="0 0 10 10" width="10" height="10">
	<title>Home v2_colours</title>
	<style>
		tspan { white-space:pre }
		.shp0 { fill: #73a9b0 } 
	</style>
	<g id="Home v2_colours">
		<g id="sidebar">
			<g id="sidebar-DEMENZWIKI">
				<g id="wiki-07">
					<g id="icon_wiki07">
						<path id="Path" class="shp0" d="M9.5 1.38L9.5 8.62C9.5 9.1 9.11 9.5 8.62 9.5L7.77 9.5C7.57 9.5 7.41 9.34 7.41 9.15C7.41 8.95 7.57 8.8 7.77 8.8L8.62 8.8C8.72 8.8 8.8 8.72 8.8 8.62L8.8 5.37L5.69 5.37C5.5 5.37 5.34 5.21 5.34 5.02C5.34 4.82 5.5 4.67 5.69 4.67L8.8 4.67L8.8 1.38C8.8 1.28 8.72 1.2 8.62 1.2L4.65 1.2L4.65 2.23C4.65 2.43 4.49 2.59 4.3 2.59C4.1 2.59 3.95 2.43 3.95 2.23L3.95 1.2L1.38 1.2C1.28 1.2 1.2 1.28 1.2 1.38L1.2 4.65L3.95 4.65L3.95 3.62C3.95 3.42 4.1 3.27 4.3 3.27C4.49 3.27 4.65 3.42 4.65 3.62L4.65 6.38C4.65 6.58 4.49 6.73 4.3 6.73C4.1 6.73 3.95 6.58 3.95 6.38L3.95 5.35L1.2 5.35L1.2 8.62C1.2 8.72 1.28 8.8 1.38 8.8L3.95 8.8L3.95 7.77C3.95 7.57 4.1 7.41 4.3 7.41C4.49 7.41 4.65 7.57 4.65 7.77L4.65 8.8L6.38 8.8C6.58 8.8 6.73 8.95 6.73 9.15C6.73 9.34 6.58 9.5 6.38 9.5L1.38 9.5C0.89 9.5 0.5 9.1 0.5 8.62L0.5 1.38C0.5 0.89 0.89 0.5 1.38 0.5L8.62 0.5C9.11 0.5 9.5 0.89 9.5 1.38L9.5 1.38Z" />
					</g>
				</g>
			</g>
		</g>
	</g>
</svg>