<svg version="1.2" baseProfile="tiny-ps" xmlns="http://www.w3.org/2000/svg" viewBox="0 0 12 11" width="12" height="11">
	<title>Home v2_colours</title>
	<style>
		tspan { white-space:pre }
		.shp0 { fill: #73a9b0 } 
	</style>
	<g id="Home v2_colours">
		<g id="sidebar">
			<g id="sidebar-DEMENZWIKI">
				<g id="wiki-02">
					<g id="icon_wiki02">
						<path id="XMLID_1387_" fill-rule="evenodd" class="shp0" d="M11.5 3.46L11.5 8.42C11.5 9.29 10.77 10 9.86 10L2.14 10C1.23 10 0.5 9.29 0.5 8.42L0.5 3.46C0.5 2.58 1.23 1.88 2.14 1.88L3.73 1.88L3.73 1.06C3.73 0.48 4.22 0 4.83 0L7.17 0C7.78 0 8.27 0.48 8.27 1.06L8.27 1.88L9.86 1.88C10.77 1.88 11.5 2.58 11.5 3.46ZM4.38 1.88L7.62 1.88L7.62 1.06C7.62 0.82 7.42 0.62 7.17 0.62L4.83 0.62C4.58 0.62 4.38 0.82 4.38 1.06L4.38 1.88ZM1.82 9.33L1.82 2.55C1.43 2.68 1.14 3.04 1.14 3.46L1.14 8.42C1.14 8.84 1.43 9.2 1.82 9.33ZM9.54 9.38L9.54 2.5L2.46 2.5L2.46 9.38L9.54 9.38ZM10.86 3.46C10.86 3.04 10.57 2.68 10.18 2.55L10.18 9.33C10.57 9.2 10.86 8.84 10.86 8.42L10.86 3.46Z" />
						<path id="XMLID_1393_" fill-rule="evenodd" class="shp0" d="M8.5 5.11L8.5 6.39C8.5 6.57 8.36 6.71 8.18 6.71L7.21 6.71L7.21 7.68C7.21 7.86 7.07 8 6.89 8L5.61 8C5.43 8 5.29 7.86 5.29 7.68L5.29 6.71L4.32 6.71C4.14 6.71 4 6.57 4 6.39L4 5.11C4 4.93 4.14 4.79 4.32 4.79L5.29 4.79L5.29 3.82C5.29 3.64 5.43 3.5 5.61 3.5L6.89 3.5C7.07 3.5 7.21 3.64 7.21 3.82L7.21 4.79L8.18 4.79C8.36 4.79 8.5 4.93 8.5 5.11ZM7.86 5.43L6.89 5.43C6.72 5.43 6.57 5.28 6.57 5.11L6.57 4.14L5.93 4.14L5.93 5.11C5.93 5.28 5.78 5.43 5.61 5.43L4.64 5.43L4.64 6.07L5.61 6.07C5.78 6.07 5.93 6.22 5.93 6.39L5.93 7.36L6.57 7.36L6.57 6.39C6.57 6.22 6.72 6.07 6.89 6.07L7.86 6.07L7.86 5.43Z" />
					</g>
				</g>
			</g>
		</g>
	</g>
</svg>