<svg version="1.2" baseProfile="tiny-ps" xmlns="http://www.w3.org/2000/svg" viewBox="0 0 13 10" width="13" height="10">
	<title>Home v2_colours</title>
	<style>
		tspan { white-space:pre }
		.shp0 { fill: #73a9b0 } 
	</style>
	<g id="Home v2_colours">
		<g id="sidebar">
			<g id="sidebar-BLOGS">
				<g id="icon_megaphone">
					<path id="Shape" fill-rule="evenodd" class="shp0" d="M10.69 9.28C10.57 9.28 10.44 9.26 10.33 9.21L4.36 6.71L4.87 8.63C5.03 9.19 4.67 9.82 4.11 9.96C4.01 9.99 3.92 10 3.83 10C3.35 10 2.91 9.68 2.78 9.2L2.06 6.5C-0.2 6.04 0.06 2.78 2.39 2.71L3.92 2.71L10.25 0.11C10.39 0.04 10.54 0 10.69 0C13.1 0.02 13.1 9.27 10.69 9.28ZM9.57 4.64C9.57 4.83 9.58 5.01 9.58 5.19L9.71 5.19C10.43 5.16 10.43 4.13 9.71 4.1L9.58 4.1C9.58 4.27 9.57 4.45 9.57 4.64ZM8.87 4.64C8.87 3.39 9.05 2.13 9.41 1.24L4.34 3.3L4.34 5.94L9.42 8.07C9.06 7.18 8.87 5.9 8.87 4.64ZM2.39 5.82L3.63 5.82L3.63 3.42L2.39 3.42C1.73 3.42 1.19 3.96 1.19 4.62C1.19 5.28 1.73 5.82 2.39 5.82ZM4.15 9.1C4.2 9.02 4.21 8.91 4.19 8.82L3.58 6.53L2.8 6.53L3.46 9.01C3.52 9.21 3.72 9.33 3.92 9.28C4.02 9.25 4.1 9.19 4.15 9.1ZM11.8 4.64C11.8 2.1 11.07 0.71 10.69 0.71C10.38 0.71 9.82 1.64 9.64 3.39L9.71 3.39C11.36 3.46 11.36 5.82 9.71 5.89L9.64 5.89C9.82 7.64 10.38 8.58 10.69 8.58C11.07 8.58 11.8 7.19 11.8 4.64Z" />
				</g>
			</g>
		</g>
	</g>
</svg>