<svg version="1.2" baseProfile="tiny-ps" xmlns="http://www.w3.org/2000/svg" viewBox="0 0 11 10" width="11" height="10">
	<title>Home v2_colours</title>
	<style>
		tspan { white-space:pre }
		.shp0 { fill: #73a9b0 } 
	</style>
	<g id="Home v2_colours">
		<g id="sidebar">
			<g id="sidebar-DEMENZWIKI">
				<g id="wiki-03">
					<g id="icon_wiki03">
						<path id="Shape" fill-rule="evenodd" class="shp0" d="M10.84 2.1C10.83 2.11 10.83 2.12 10.82 2.13L9.48 4.32C9.28 4.69 8.95 4.95 8.55 5.06L8.55 7.96C8.55 8.76 7.76 9.39 6.73 9.39C5.74 9.39 4.96 8.79 4.92 8.02C4.92 8.01 4.92 8 4.92 7.99L4.92 4.64C4.92 4.36 4.51 4.04 3.93 4.04C3.35 4.04 2.94 4.36 2.94 4.64L2.94 7.07C3.59 7.24 4.07 7.82 4.07 8.51C4.07 9.33 3.38 10 2.54 10C1.69 10 1 9.33 1 8.51C1 7.83 1.47 7.25 2.12 7.07L2.12 4.64C2.12 3.84 2.92 3.21 3.94 3.21C4.96 3.21 5.76 3.84 5.76 4.64L5.76 7.96C5.76 8.24 6.16 8.56 6.74 8.56C7.32 8.56 7.73 8.24 7.73 7.96L7.73 5.05C7.35 4.94 7.02 4.69 6.83 4.34L5.45 2.14C5.44 2.13 5.44 2.12 5.43 2.12C5.2 1.67 5.21 1.15 5.47 0.72C5.75 0.27 6.23 0 6.77 0C6.99 0 7.18 0.19 7.18 0.41C7.18 0.64 6.99 0.83 6.76 0.83C6.52 0.83 6.3 0.95 6.18 1.15C6.08 1.33 6.07 1.53 6.16 1.72L7.53 3.9C7.54 3.91 7.55 3.92 7.55 3.93C7.67 4.15 7.89 4.28 8.15 4.28C8.15 4.28 8.15 4.28 8.15 4.28C8.41 4.28 8.64 4.14 8.75 3.92C8.76 3.92 8.76 3.91 8.77 3.9L10.11 1.71C10.2 1.52 10.19 1.32 10.08 1.14C9.96 0.95 9.75 0.83 9.5 0.83C9.27 0.83 9.09 0.64 9.09 0.41C9.09 0.19 9.27 0 9.5 0C10.04 0 10.52 0.27 10.79 0.71C11.05 1.14 11.07 1.66 10.84 2.1ZM2.54 7.85C2.15 7.85 1.83 8.14 1.83 8.51C1.83 8.87 2.15 9.17 2.54 9.17C2.93 9.17 3.24 8.87 3.24 8.51C3.24 8.14 2.93 7.85 2.54 7.85Z" />
					</g>
				</g>
			</g>
		</g>
	</g>
</svg>