<svg version="1.2" baseProfile="tiny-ps" xmlns="http://www.w3.org/2000/svg" viewBox="0 0 13 10" width="13" height="10">
	<title>Home v2_colours</title>
	<style>
		tspan { white-space:pre }
		.shp0 { fill: #73a9b0 } 
	</style>
	<g id="Home v2_colours">
		<g id="sidebar">
			<g id="sidebar-DEMENZWIKI">
				<g id="wiki-05">
					<g id="icon_wiki05">
						<path id="Shape" fill-rule="evenodd" class="shp0" d="M9.5 5.25C9.5 5.38 9.44 5.5 9.34 5.57L6.54 7.44C6.48 7.48 6.41 7.5 6.35 7.5C6.29 7.5 6.23 7.48 6.18 7.45C6.07 7.39 6 7.26 6 7.12L6 3.37C6 3.24 6.07 3.11 6.18 3.05C6.29 2.98 6.43 2.98 6.54 3.06L9.34 4.93C9.44 5 9.5 5.12 9.5 5.25ZM8.49 5.25L6.7 4.05L6.7 6.45L8.49 5.25Z" />
						<path id="Shape" fill-rule="evenodd" class="shp0" d="M13 2.23L13 7.77C13 8.72 12.21 9.5 11.24 9.5L2.76 9.5C1.79 9.5 1 8.72 1 7.77L1 2.23C1 1.28 1.79 0.5 2.76 0.5L11.24 0.5C12.21 0.5 13 1.28 13 2.23ZM12.3 2.23C12.3 1.66 11.82 1.19 11.24 1.19L2.76 1.19C2.18 1.19 1.7 1.66 1.7 2.23L1.7 7.77C1.7 8.34 2.18 8.81 2.76 8.81L11.24 8.81C11.82 8.81 12.3 8.34 12.3 7.77L12.3 2.23Z" />
					</g>
				</g>
			</g>
		</g>
	</g>
</svg>