<svg width="60" height="60" viewBox="0 0 60 60" fill="none" xmlns="http://www.w3.org/2000/svg">
<path d="M50.625 11.2514H9.375C8.33947 11.2514 7.5 12.0909 7.5 13.1264V46.8764C7.5 47.9119 8.33947 48.7514 9.375 48.7514H50.625C51.6605 48.7514 52.5 47.9119 52.5 46.8764V13.1264C52.5 12.0909 51.6605 11.2514 50.625 11.2514Z" stroke="#3E1CE7" stroke-width="2" stroke-linecap="round" stroke-linejoin="round"/>
<path d="M15.9375 22.5014C17.4908 22.5014 18.75 21.2422 18.75 19.6889C18.75 18.1356 17.4908 16.8764 15.9375 16.8764C14.3842 16.8764 13.125 18.1356 13.125 19.6889C13.125 21.2422 14.3842 22.5014 15.9375 22.5014Z" fill="#3E1CE7"/>
<path d="M25.3125 22.5014C26.8658 22.5014 28.125 21.2422 28.125 19.6889C28.125 18.1356 26.8658 16.8764 25.3125 16.8764C23.7592 16.8764 22.5 18.1356 22.5 19.6889C22.5 21.2422 23.7592 22.5014 25.3125 22.5014Z" fill="#3E1CE7"/>
</svg>
