<svg width="60" height="60" viewBox="0 0 60 60" fill="none" xmlns="http://www.w3.org/2000/svg">
<path d="M43.1268 18.75H9.37683C8.3413 18.75 7.50183 19.5895 7.50183 20.625V46.875C7.50183 47.9105 8.3413 48.75 9.37683 48.75H43.1268C44.1624 48.75 45.0018 47.9105 45.0018 46.875V20.625C45.0018 19.5895 44.1624 18.75 43.1268 18.75Z" stroke="#3E1CE7" stroke-width="2" stroke-linecap="round" stroke-linejoin="round"/>
<path d="M15.0018 18.75V13.125C15.0018 12.6277 15.1994 12.1508 15.551 11.7992C15.9026 11.4475 16.3796 11.25 16.8768 11.25H50.6268C51.1241 11.25 51.601 11.4475 51.9527 11.7992C52.3043 12.1508 52.5018 12.6277 52.5018 13.125V39.375C52.5018 39.8723 52.3043 40.3492 51.9527 40.7008C51.601 41.0524 51.1241 41.25 50.6268 41.25H45.0018" stroke="#3E1CE7" stroke-width="2" stroke-linecap="round" stroke-linejoin="round"/>
<path d="M7.5 26.25H45" stroke="#3E1CE7" stroke-width="2" stroke-linecap="round" stroke-linejoin="round"/>
</svg>
