<svg version="1.2" baseProfile="tiny-ps" xmlns="http://www.w3.org/2000/svg" viewBox="0 0 11 12" width="11" height="12">
	<title>cancel</title>
	<style>
		tspan { white-space:pre }
		.shp0 { fill: #333333 } 
	</style>
	<g id="cancel">
		<path id="Shape" fill-rule="evenodd" class="shp0" d="M9.39 9.89C8.32 10.96 6.91 11.5 5.5 11.5C4.09 11.5 2.68 10.96 1.61 9.89C0.57 8.85 0 7.47 0 6C0 4.53 0.57 3.15 1.61 2.11C3.76 -0.04 7.25 -0.04 9.39 2.11C11.54 4.25 11.54 7.74 9.39 9.89ZM8.79 2.71C6.98 0.9 4.03 0.9 2.21 2.71C1.34 3.59 0.85 4.76 0.85 6C0.85 7.24 1.34 8.41 2.21 9.29C4.03 11.1 6.98 11.1 8.79 9.29C10.6 7.47 10.6 4.52 8.79 2.71Z" />
		<path id="Path" class="shp0" d="M7.37 7.87C7.29 7.96 7.17 8 7.06 8C6.95 8 6.83 7.96 6.75 7.87L5.5 6.62L4.25 7.87C4.17 7.96 4.05 8 3.94 8C3.83 8 3.71 7.96 3.63 7.87C3.46 7.7 3.46 7.42 3.63 7.25L4.88 6L3.63 4.75C3.46 4.58 3.46 4.3 3.63 4.13C3.8 3.96 4.08 3.96 4.25 4.13L5.5 5.38L6.75 4.13C6.92 3.96 7.2 3.96 7.37 4.13C7.54 4.3 7.54 4.58 7.37 4.75L6.12 6L7.37 7.25C7.54 7.42 7.54 7.7 7.37 7.87Z" />
	</g>
</svg>