<svg width="60" height="60" viewBox="0 0 60 60" fill="none" xmlns="http://www.w3.org/2000/svg">
<path d="M7.98552 32.988C5.88892 29.4536 5.15467 25.2754 5.92066 21.238C6.68664 17.2006 8.90016 13.5816 12.1456 11.0608C15.391 8.53987 19.445 7.29045 23.5465 7.54711C27.6479 7.80377 31.5145 9.54884 34.4204 12.4547C37.3262 15.3605 39.0713 19.2271 39.3279 23.3285C39.5846 27.43 38.3352 31.484 35.8144 34.7294C33.2935 37.9749 29.6746 40.1884 25.6371 40.9544C21.5997 41.7204 17.4215 40.9862 13.8872 38.8896L13.8872 38.8894L8.0589 40.5546C7.81776 40.6235 7.56259 40.6267 7.31982 40.5638C7.07706 40.5009 6.85553 40.3742 6.6782 40.1969C6.50087 40.0195 6.37419 39.798 6.31128 39.5552C6.24837 39.3125 6.25153 39.0573 6.32043 38.8162L7.98566 32.9879L7.98552 32.988Z" stroke="#3E1CE7" stroke-width="2" stroke-linecap="round" stroke-linejoin="round"/>
<path d="M21.5763 41.2248C22.4059 43.5798 23.7474 45.7216 25.5042 47.4957C27.2611 49.2699 29.3895 50.6324 31.7363 51.485C34.083 52.3376 36.5896 52.6592 39.0756 52.4266C41.5616 52.1939 43.965 51.4128 46.1128 50.1396L46.1128 50.1394L51.9411 51.8047C52.1822 51.8735 52.4374 51.8767 52.6802 51.8138C52.9229 51.7509 53.1445 51.6242 53.3218 51.4469C53.4991 51.2695 53.6258 51.048 53.6887 50.8053C53.7516 50.5625 53.7485 50.3073 53.6796 50.0662L52.0143 44.2379L52.0145 44.238C53.494 41.7427 54.3056 38.9082 54.3707 36.008C54.4358 33.1077 53.7524 30.2397 52.3864 27.6805C51.0204 25.1213 49.0178 22.9573 46.5719 21.3974C44.1261 19.8375 41.3195 18.9342 38.4229 18.7748" stroke="#3E1CE7" stroke-width="2" stroke-linecap="round" stroke-linejoin="round"/>
</svg>
