<svg width="60" height="60" viewBox="0 0 60 60" fill="none" xmlns="http://www.w3.org/2000/svg">
<path d="M12.7643 47.2357C10.6071 45.0785 12.0379 40.5496 10.9399 37.8959C9.80165 35.1449 5.625 32.9308 5.625 29.9999C5.625 27.069 9.80167 24.855 10.9399 22.1041C12.0379 19.4504 10.6071 14.9215 12.7643 12.7643C14.9215 10.6071 19.4504 12.0379 22.1041 10.9399C24.8551 9.80165 27.0692 5.625 30.0001 5.625C32.931 5.625 35.145 9.80167 37.8959 10.9399C40.5496 12.0379 45.0785 10.6071 47.2357 12.7643C49.3929 14.9215 47.9621 19.4504 49.0601 22.1041C50.1984 24.8551 54.375 27.0692 54.375 30.0001C54.375 32.931 50.1983 35.145 49.0601 37.8959C47.9621 40.5496 49.3929 45.0785 47.2357 47.2357C45.0785 49.3929 40.5496 47.9621 37.8959 49.0601C35.1449 50.1984 32.9308 54.375 29.9999 54.375C27.069 54.375 24.855 50.1983 22.1041 49.0601C19.4504 47.9621 14.9215 49.3929 12.7643 47.2357Z" stroke="#3E1CE7" stroke-width="2" stroke-linecap="round" stroke-linejoin="round"/>
<path d="M40.3125 24.375L26.5624 37.5L19.6875 30.9375" stroke="#3E1CE7" stroke-width="2" stroke-linecap="round" stroke-linejoin="round"/>
</svg>
