<svg width="40" height="40" viewBox="0 0 40 40" fill="none" xmlns="http://www.w3.org/2000/svg">
<path d="M28.3333 4.99997C28.7711 4.56223 29.2908 4.215 29.8627 3.9781C30.4346 3.74119 31.0476 3.61926 31.6667 3.61926C32.2857 3.61926 32.8987 3.74119 33.4707 3.9781C34.0426 4.215 34.5623 4.56223 35 4.99997C35.4378 5.43771 35.785 5.95739 36.0219 6.52932C36.2588 7.10126 36.3807 7.71425 36.3807 8.33331C36.3807 8.95237 36.2588 9.56536 36.0219 10.1373C35.785 10.7092 35.4378 11.2289 35 11.6666L12.5 34.1666L3.33334 36.6666L5.83334 27.5L28.3333 4.99997Z" stroke="black" stroke-width="2" stroke-linecap="round" stroke-linejoin="round"/>
</svg>
