<svg id="icon_switzerland" xmlns="http://www.w3.org/2000/svg" width="30.192" height="20" viewBox="0 0 30.192 20">
  <path id="Path" d="M27.931,20H2.261A2.274,2.274,0,0,1,0,17.714V2.286A2.274,2.274,0,0,1,2.261,0h25.67a2.274,2.274,0,0,1,2.261,2.286V17.714A2.274,2.274,0,0,1,27.931,20Z" fill="#ff4b55"/>
  <path id="Path-2" data-name="Path" d="M12.538,4.333H8.722V.542A.543.543,0,0,0,8.177,0H4.906a.543.543,0,0,0-.545.542V4.333H.545A.543.543,0,0,0,0,4.875v3.25a.543.543,0,0,0,.545.542H4.361v3.792A.543.543,0,0,0,4.906,13H8.177a.543.543,0,0,0,.545-.542V8.667h3.816a.543.543,0,0,0,.545-.542V4.875A.543.543,0,0,0,12.538,4.333Z" transform="translate(9.058 4)" fill="#f5f5f5"/>
</svg>
