<svg id="icon_wiki02" xmlns="http://www.w3.org/2000/svg" width="22" height="20" viewBox="0 0 22 20">
  <path id="XMLID_1387_" d="M3.276,20A3.225,3.225,0,0,1,0,16.835V6.916A3.225,3.225,0,0,1,3.276,3.751H6.461V2.127A2.168,2.168,0,0,1,8.663,0h4.673a2.168,2.168,0,0,1,2.2,2.127V3.751h3.185A3.225,3.225,0,0,1,22,6.916v9.92A3.225,3.225,0,0,1,18.724,20Z" fill="#73a9b0"/>
  <path id="XMLID_1393_" d="M3.214,9a.641.641,0,0,1-.641-.641V6.427H.641A.641.641,0,0,1,0,5.786V3.214a.641.641,0,0,1,.641-.641H2.573V.641A.641.641,0,0,1,3.214,0H5.786a.641.641,0,0,1,.641.641V2.573H8.359A.641.641,0,0,1,9,3.214V5.786a.641.641,0,0,1-.641.641H6.427V8.359A.641.641,0,0,1,5.786,9Z" transform="translate(7 7)" fill="#73a9b0"/>
</svg>
