<svg id="icon_wiki03" xmlns="http://www.w3.org/2000/svg" width="20" height="20" viewBox="0 0 20 20">
  <path id="Shape" d="M0,17.016a3.005,3.005,0,0,1,2.237-2.869V9.274c0-1.6,1.6-2.845,3.637-2.845S9.51,7.678,9.51,9.274v6.657c0,.559.813,1.184,1.976,1.184s1.976-.625,1.976-1.184V10.106a2.945,2.945,0,0,1-1.8-1.433L8.9,4.286a.344.344,0,0,1-.033-.053,2.818,2.818,0,0,1,.077-2.792A2.981,2.981,0,0,1,11.531,0a.828.828,0,0,1,0,1.657,1.335,1.335,0,0,0-1.164.637,1.167,1.167,0,0,0-.045,1.138L13.07,7.808a.336.336,0,0,1,.032.053,1.33,1.33,0,0,0,1.2.694h.008a1.309,1.309,0,0,0,1.2-.706c.013-.016.021-.037.032-.053l2.687-4.379a1.161,1.161,0,0,0-.058-1.13A1.341,1.341,0,0,0,17,1.657.828.828,0,0,1,17,0,2.988,2.988,0,0,1,19.58,1.425a2.811,2.811,0,0,1,.1,2.784c-.013.016-.021.037-.032.053l-2.69,4.383a2.974,2.974,0,0,1-1.85,1.47v5.812c0,1.6-1.6,2.845-3.637,2.845-1.987,0-3.56-1.192-3.632-2.731a.318.318,0,0,1,0-.065v-6.7c0-.559-.812-1.184-1.976-1.184s-1.976.625-1.976,1.184v4.865A2.974,2.974,0,0,1,3.074,20,3.033,3.033,0,0,1,0,17.016Z" fill="#73a9b0"/>
</svg>
