<svg id="icon_wiki07" xmlns="http://www.w3.org/2000/svg" width="18" height="18" viewBox="0 0 18 18">
  <path id="Path" d="M18,1.758V16.242A1.76,1.76,0,0,1,16.242,18H14.531a.7.7,0,0,1,0-1.406h1.711a.352.352,0,0,0,.352-.352v-6.5H10.383a.7.7,0,0,1,0-1.406h6.211V1.758a.352.352,0,0,0-.352-.352H8.3V3.469a.7.7,0,0,1-1.406,0V1.406H1.758a.352.352,0,0,0-.352.352V8.3H6.893V6.234a.7.7,0,0,1,1.406,0v5.531a.7.7,0,1,1-1.406,0V9.7H1.406v6.539a.352.352,0,0,0,.352.352H6.893V14.531a.7.7,0,1,1,1.406,0v2.063h3.466a.7.7,0,0,1,0,1.406H1.758A1.76,1.76,0,0,1,0,16.242V1.758A1.76,1.76,0,0,1,1.758,0H16.242A1.76,1.76,0,0,1,18,1.758Z" fill="#73a9b0"/>
</svg>
