<svg xmlns="http://www.w3.org/2000/svg" width="22" height="18" viewBox="0 0 22 18">
  <g id="icon_wiki04" transform="translate(0 0)">
    <path id="Shape" d="M10.746,17.949C7.489,16.553,3.178,16.533.6,16.359A.649.649,0,0,1,0,15.71V3.872a.648.648,0,0,1,.666-.65c.718.021,1.388.04,2.1.067V.65A.649.649,0,0,1,3.464,0,12.292,12.292,0,0,1,11,3.329,12.3,12.3,0,0,1,18.536,0a.649.649,0,0,1,.7.648v2.57c1.247-.028,2.1,0,2.137,0a.648.648,0,0,1,.625.65V15.71a.649.649,0,0,1-.6.649c-2.574.174-6.883.194-10.14,1.588a.328.328,0,0,1-.07.026A.691.691,0,0,1,11,18,.645.645,0,0,1,10.746,17.949Z" fill="#73a9b0"/>
    <path id="Path" d="M3.666.889A8.466,8.466,0,0,0,.91.009a.782.782,0,0,0-.9.5c-.072.332.214.647.639.7a6.627,6.627,0,0,1,2.125.678A.925.925,0,0,0,3.86,1.739a.532.532,0,0,0-.194-.85Z" transform="translate(5 5)" fill="#73a9b0"/>
    <path id="Path-2" data-name="Path" d="M3.623.874A9.894,9.894,0,0,0,.919.009a.791.791,0,0,0-.908.5c-.072.331.216.645.645.7a8.232,8.232,0,0,1,2.146.7.931.931,0,0,0,1.082-.2A.535.535,0,0,0,3.623.874Z" transform="translate(5 9)" fill="#73a9b0"/>
    <path id="Path-3" data-name="Path" d="M1.225,1.89A6.627,6.627,0,0,1,3.35,1.212c.425-.056.711-.371.639-.7a.782.782,0,0,0-.9-.5A8.465,8.465,0,0,0,.334.889a.532.532,0,0,0-.194.849.925.925,0,0,0,1.085.152Z" transform="translate(13 5)" fill="#73a9b0"/>
    <path id="Path-4" data-name="Path" d="M3.081.009a9.891,9.891,0,0,0-2.7.865.535.535,0,0,0-.262.835.931.931,0,0,0,1.082.2,8.232,8.232,0,0,1,2.146-.7c.429-.056.718-.369.645-.7a.791.791,0,0,0-.908-.5Z" transform="translate(13 9)" fill="#73a9b0"/>
  </g>
</svg>
