<svg xmlns="http://www.w3.org/2000/svg" width="24" height="18" viewBox="0 0 24 18">
  <g id="icon_wiki05" transform="translate(0)">
    <path id="Shape" d="M.361,8.906A.759.759,0,0,1,0,8.25V.75A.759.759,0,0,1,.361.094a.661.661,0,0,1,.71.021l5.6,3.749a.779.779,0,0,1,0,1.273l-5.6,3.749a.66.66,0,0,1-.71.021Z" transform="translate(10 5)" fill="#73a9b0"/>
    <path id="Shape-2" data-name="Shape" d="M3.515,18A3.492,3.492,0,0,1,0,14.539V3.461A3.492,3.492,0,0,1,3.515,0H20.484A3.493,3.493,0,0,1,24,3.461V14.539A3.493,3.493,0,0,1,20.484,18Z" fill="#73a9b0"/>
  </g>
</svg>
