<svg xmlns="http://www.w3.org/2000/svg" width="26" height="21.999" viewBox="0 0 26 21.999">
  <g id="icon_wiki06" transform="translate(0 0)">
    <path id="Shape" d="M22.647,21.227V18.276a2.336,2.336,0,0,1,0-4.384V6.908l-2,.722V12.67c0,.832-.855,1.535-2.542,2.091a16.809,16.809,0,0,1-5.1.752,16.807,16.807,0,0,1-5.1-.752C6.21,14.206,5.355,13.5,5.355,12.67V7.629L.507,5.882a.777.777,0,0,1,0-1.457L12.747.044a.753.753,0,0,1,.507,0l12.238,4.38a.777.777,0,0,1,0,1.457l-1.323.477v7.534a2.335,2.335,0,0,1,0,4.384v2.951a.762.762,0,1,1-1.524,0Z" fill="#73a9b0"/>
  </g>
</svg>
