<svg width="389" height="377" viewBox="0 0 389 377" fill="none" xmlns="http://www.w3.org/2000/svg">
<path fill-rule="evenodd" clip-rule="evenodd" d="M91.7325 271.341C72.0917 254.775 49.5777 239.985 41.9683 215.213C32.9679 185.913 29.906 151.555 46.2851 123.388C63.0306 94.5912 97.2379 81.8995 127.647 67.8731C159.342 53.2534 192.284 35.1988 225.222 40.8525C258.772 46.6112 291.609 66.9766 303.28 98.0197C314.37 127.517 286.211 159.492 281.988 191.835C278.678 217.179 292.147 242.056 281.36 265.889C269.532 292.023 248.868 318.827 221.109 326.348C193.831 333.738 170.347 313.159 145.643 302.656C125.896 294.26 107.904 284.981 91.7325 271.341Z" fill="#3E1CE7"/>
<path d="M101.484 229.097H123.893V163.952L161.027 229.097H179.434L216.569 163.952V229.097H238.977V117.053H217.369L170.311 199.806L123.092 117.053H101.484V229.097Z" fill="black"/>
</svg>
