<svg xmlns="http://www.w3.org/2000/svg" xmlns:xlink="http://www.w3.org/1999/xlink" viewBox="0 0 356 41">
  <defs>
    <path id="c" d="M0 40h356V0H0z"/>
  </defs>
  <defs>
    <use xlink:href="#c"/>
    <use id="e" xlink:href="#c"/>
    <use id="g" xlink:href="#c"/>
    <use id="i" xlink:href="#c"/>
    <use id="k" xlink:href="#c"/>
    <use id="m" xlink:href="#c"/>
    <use id="o" xlink:href="#c"/>
    <path id="a" d="M0 29h21V0H0z"/>
  </defs>
  <g fill="none" fill-rule="evenodd">
    <path fill="#ffffff" fill-rule="nonzero" d="M333 36h6.501V23.748c0-2.95 1.583-4.467 4.063-4.467 2.48 0 3.935 1.516 3.935 4.467V36H354V21.78c0-5.04-2.867-8.153-7.784-8.153-3.294 0-5.218 1.68-6.715 3.523V4H333v32ZM321.325 36c4.727 0 7.377-1.763 9.675-4.215l-3.934-3.871c-1.633 1.505-3.18 2.451-5.432 2.451-3.667 0-6.008-2.838-6.008-6.366v-.085c0-3.398 2.386-6.28 5.743-6.28 2.385 0 3.887.99 5.39 2.538l4.107-4.302c-2.208-2.408-4.991-3.87-9.453-3.87C314.169 12 309 17.419 309 24v.086C309 30.666 314.214 36 321.325 36M302.094 36c1.068 0 2.009-.17 2.906-.597v-1.834c-.94.384-1.752.554-2.606.554-2.18 0-3.676-.895-3.676-3.624V14.676h5.491v-1.833h-5.49V7h-2.008v5.843H293v1.833h3.71v16.078c0 3.668 2.351 5.246 5.384 5.246M257 36h1.932V21.247c0-4.34 2.772-7.407 6.383-7.407 3.654 0 5.711 2.63 5.711 7.187V36H273V20.458c0-5.17-2.813-8.458-7.348-8.458-3.444 0-5.502 1.972-6.72 4.382v-3.9H257V36ZM241.35 36c3.402 0 5.501-2.018 6.676-4.387v3.904H250V12h-1.974v14.743c0 4.343-2.77 7.371-6.341 7.371-3.653 0-5.753-2.589-5.753-7.152V12H234v15.533c0 5.177 2.814 8.467 7.35 8.467M276 36h1.964v-6.738l4.308-4.906L289.567 36H292l-8.363-13.237 7.952-9.241h-2.386l-11.239 13.057V5H276z"/>
    <g transform="translate(210 12)">
      <mask id="b" fill="#fff">
        <use xlink:href="#a"/>
      </mask>
      <path fill="#ffffff" fill-rule="nonzero" d="M18.63 11.94c0 5.91-3.582 9.445-7.986 9.445-4.354 0-8.564-3.827-8.564-9.445v-.664c0-5.577 4.21-9.444 8.564-9.444 4.308 0 7.985 3.7 7.985 9.527v.58ZM10.886 0c-4.21 0-6.872 2.33-8.661 5.035V.458H0V29h2.226V18.305c1.693 2.622 4.403 4.91 8.66 4.91 5.08 0 10.114-4.284 10.114-11.358v-.581C21 4.201 15.967 0 10.887 0Z" mask="url(#b)"/>
    </g>
    <path fill="#ffffff" fill-rule="nonzero" d="M192 36h6.117v-8.7c0-5.624 2.495-8.304 6.56-8.304H205V12.01c-3.622-.176-5.634 1.933-6.883 5.184V12.45H192V36ZM170.798 22.15c.548-2.967 2.419-4.903 5.293-4.903 2.92 0 4.745 1.978 5.156 4.904h-10.449ZM188 24.517C188 17.978 184.259 12 176.09 12 168.975 12 164 17.42 164 24v.086C164 31.14 169.43 36 176.776 36c4.426 0 7.71-1.634 9.992-4.3l-3.97-3.313c-1.916 1.678-3.604 2.366-5.931 2.366-3.103 0-5.293-1.548-5.977-4.516h17.018c.046-.602.092-1.205.092-1.721ZM126 36h6.69V22.857c0-3.165 1.54-4.791 4.048-4.791 2.509 0 3.917 1.626 3.917 4.791V36h6.69V22.857c0-3.165 1.54-4.791 4.048-4.791 2.509 0 3.917 1.626 3.917 4.791V36H162V20.66c0-5.672-2.993-8.66-7.966-8.66-3.212 0-5.677 1.318-7.745 3.735-1.233-2.373-3.565-3.735-6.646-3.735-3.389 0-5.414 1.802-6.953 3.78v-3.34H126V36Z"/>
    <g>
      <mask id="d" fill="#fff">
        <use xlink:href="#c"/>
      </mask>
      <path fill="#ffffff" fill-rule="nonzero" d="M113 36.779h6.485V14H113z" mask="url(#d)"/>
    </g>
    <g>
      <mask id="f" fill="#fff">
        <use xlink:href="#e"/>
      </mask>
      <path fill="#ffffff" fill-rule="nonzero" d="M93.357 23.03c.512-2.933 2.262-4.845 4.95-4.845 2.73 0 4.437 1.954 4.82 4.845h-9.77Zm16.085 2.337c0-6.46-3.498-12.367-11.135-12.367C91.65 13 87 18.355 87 24.857v.085c0 6.97 5.077 11.772 11.947 11.772 4.138 0 7.21-1.615 9.343-4.249l-3.712-3.273c-1.791 1.658-3.37 2.338-5.546 2.338-2.901 0-4.95-1.53-5.59-4.463h15.915c.043-.595.085-1.19.085-1.7Z" mask="url(#f)"/>
    </g>
    <g>
      <mask id="h" fill="#fff">
        <use xlink:href="#g"/>
      </mask>
      <path fill="#ffffff" fill-rule="nonzero" d="M62 36.188h6.485V23.481c0-3.06 1.579-4.632 4.053-4.632 2.475 0 3.925 1.572 3.925 4.632v12.707h6.486V21.441c0-5.227-2.858-8.457-7.765-8.457-3.285 0-5.205 1.742-6.7 3.654V3H62v33.188Z" mask="url(#h)"/>
    </g>
    <g>
      <mask id="j" fill="#fff">
        <use xlink:href="#i"/>
      </mask>
      <path fill="#ffffff" fill-rule="nonzero" d="M37 36.779h19.882v-5.227H45.021l11.861-13.005V14H37.384v5.227h11.435L37 32.232z" mask="url(#j)"/>
    </g>
    <g>
      <mask id="l" fill="#fff">
        <use xlink:href="#k"/>
      </mask>
      <path fill="#ffffff" fill-rule="nonzero" d="M25 36.188h6.485V3H25z" mask="url(#l)"/>
    </g>
    <g>
      <mask id="n" fill="#fff">
        <use xlink:href="#m"/>
      </mask>
      <path fill="#ffffff" fill-rule="nonzero" d="M120.413 6.691A3.7 3.7 0 0 0 116.707 3 3.699 3.699 0 0 0 113 6.691a3.698 3.698 0 0 0 3.707 3.693 3.699 3.699 0 0 0 3.706-3.693" mask="url(#n)"/>
    </g>
    <g>
      <mask id="p" fill="#fff">
        <use xlink:href="#o"/>
      </mask>
      <path fill="#ffffff" fill-rule="nonzero" d="M14.894 26.67c0 2.873-1.82 5.358-5.079 5.358-1.83 0-3.543-.857-3.543-2.762 0-1.912 1.337-3.825 8.622-3.825v1.23ZM10.495 13s-5.266-.049-9.153 2.902l2.73 4.287c.997-.543 3.726-1.867 5.818-1.867 2.746 0 4.75 1.064 4.848 3.507C6.96 21.72 0 22.816 0 29.435v.086c0 4.506 3.542 6.97 7.852 6.97 3.158 0 5.334-1.147 6.914-2.89v2.466h6.272v-13.22c0-1.589.023-9.847-10.543-9.847Z" mask="url(#p)"/>
    </g>
  </g>
</svg>
