<svg width="99" height="98" viewBox="0 0 99 98" fill="none" xmlns="http://www.w3.org/2000/svg">
<path fill-rule="evenodd" clip-rule="evenodd" d="M24.6812 71.8521C19.8206 67.7525 14.249 64.0924 12.3658 57.9618C10.1384 50.7107 9.38071 42.2081 13.4341 35.2375C17.5782 28.111 26.0436 24.9701 33.5691 21.4989C41.4129 17.8809 49.5651 13.4128 57.7165 14.812C66.0192 16.2371 74.1455 21.277 77.0339 28.9594C79.7784 36.2592 72.8097 44.1722 71.7645 52.1765C70.9456 58.4483 74.2786 64.6047 71.6093 70.5028C68.6822 76.9703 63.5682 83.6038 56.6987 85.4648C49.948 87.2936 44.1363 82.201 38.0228 79.6018C33.1357 77.524 28.6833 75.2276 24.6812 71.8521Z" fill="white"/>
<path d="M27 61H32.5413V45.3014L41.7241 61H46.2759L55.4587 45.3014V61H61V34H55.6566L44.0198 53.9414L32.3434 34H27V61Z" fill="black"/>
</svg>
