<svg width="60" height="60" viewBox="0 0 60 60" fill="none" xmlns="http://www.w3.org/2000/svg">
<path d="M18.75 54.375C20.8211 54.375 22.5 52.6961 22.5 50.625C22.5 48.5539 20.8211 46.875 18.75 46.875C16.6789 46.875 15 48.5539 15 50.625C15 52.6961 16.6789 54.375 18.75 54.375Z" fill="#3E1CE7"/>
<path d="M43.125 54.375C45.1961 54.375 46.875 52.6961 46.875 50.625C46.875 48.5539 45.1961 46.875 43.125 46.875C41.0539 46.875 39.375 48.5539 39.375 50.625C39.375 52.6961 41.0539 54.375 43.125 54.375Z" fill="#3E1CE7"/>
<path d="M9.91072 16.875H51.9643L45.7771 38.5302C45.5532 39.3138 45.0802 40.0031 44.4296 40.4938C43.779 40.9845 42.9863 41.25 42.1714 41.25H19.7036C18.8887 41.25 18.096 40.9845 17.4454 40.4938C16.7948 40.0031 16.3218 39.3138 16.0979 38.5302L7.62068 8.8599C7.50875 8.46812 7.27224 8.12347 6.94694 7.8781C6.62165 7.63273 6.22528 7.5 5.81783 7.5H1.875" stroke="#3E1CE7" stroke-width="2" stroke-linecap="round" stroke-linejoin="round"/>
</svg>
