<svg width="99" height="98" viewBox="0 0 99 98" fill="none" xmlns="http://www.w3.org/2000/svg">
<path fill-rule="evenodd" clip-rule="evenodd" d="M24.681 71.8521C19.8203 67.7525 14.2487 64.0924 12.3656 57.9618C10.1382 50.7107 9.38046 42.2081 13.4339 35.2375C17.578 28.111 26.0434 24.9701 33.5689 21.4989C41.4127 17.8809 49.5648 13.4128 57.7162 14.812C66.019 16.2371 74.1452 21.277 77.0336 28.9594C79.7781 36.2592 72.8094 44.1722 71.7643 52.1765C70.9453 58.4483 74.2784 64.6047 71.609 70.5028C68.6819 76.9703 63.5679 83.6038 56.6984 85.4648C49.9478 87.2936 44.1361 82.201 38.0225 79.6018C33.1354 77.524 28.6831 75.2276 24.681 71.8521Z" fill="#3E1CE7"/>
<path d="M27.0947 61.3977H32.6403V45.2758L41.8302 61.3977H46.3855L55.5753 45.2758V61.3977H61.1209V33.6697H55.7734L44.1276 54.1488L32.4423 33.6697H27.0947V61.3977Z" fill="black"/>
</svg>
