<svg width="61" height="64" viewBox="0 0 61 64" fill="none" xmlns="http://www.w3.org/2000/svg">
<path d="M30.2329 55.6658C42.6199 55.6658 52.6616 45.1463 52.6616 32.1699C52.6616 19.1935 42.6199 8.67407 30.2329 8.67407C17.8459 8.67407 7.8042 19.1935 7.8042 32.1699C7.8042 45.1463 17.8459 55.6658 30.2329 55.6658Z" stroke="#3E1CE7" stroke-width="2" stroke-linecap="round" stroke-linejoin="round"/>
<path d="M39.9469 38.0432C38.9616 39.8284 37.5454 41.3107 35.8403 42.3413C34.1353 43.3718 32.2014 43.9143 30.233 43.9143C28.2645 43.9143 26.3306 43.3719 24.6256 42.3414C22.9205 41.3109 21.5042 39.8286 20.5189 38.0434" stroke="#3E1CE7" stroke-width="2" stroke-linecap="round" stroke-linejoin="round"/>
<path d="M21.8221 30.2124C23.3705 30.2124 24.6257 28.8974 24.6257 27.2753C24.6257 25.6531 23.3705 24.3381 21.8221 24.3381C20.2738 24.3381 19.0186 25.6531 19.0186 27.2753C19.0186 28.8974 20.2738 30.2124 21.8221 30.2124Z" fill="#3E1CE7"/>
<path d="M38.6437 30.2124C40.1921 30.2124 41.4473 28.8974 41.4473 27.2753C41.4473 25.6531 40.1921 24.3381 38.6437 24.3381C37.0953 24.3381 35.8401 25.6531 35.8401 27.2753C35.8401 28.8974 37.0953 30.2124 38.6437 30.2124Z" fill="#3E1CE7"/>
</svg>
