<svg width="61" height="60" viewBox="0 0 61 60" fill="none" xmlns="http://www.w3.org/2000/svg">
<path d="M47.0316 16.875C49.1095 16.875 50.7941 15.1961 50.7941 13.125C50.7941 11.0539 49.1095 9.375 47.0316 9.375C44.9536 9.375 43.269 11.0539 43.269 13.125C43.269 15.1961 44.9536 16.875 47.0316 16.875Z" stroke="#3E1CE7" stroke-width="2" stroke-linecap="round" stroke-linejoin="round"/>
<path d="M47.0316 9.375V6.5625" stroke="#3E1CE7" stroke-width="2" stroke-linecap="round" stroke-linejoin="round"/>
<path d="M43.7731 11.25L41.3293 9.84375" stroke="#3E1CE7" stroke-width="2" stroke-linecap="round" stroke-linejoin="round"/>
<path d="M43.7731 15L41.3293 16.4062" stroke="#3E1CE7" stroke-width="2" stroke-linecap="round" stroke-linejoin="round"/>
<path d="M47.0316 16.875V19.6875" stroke="#3E1CE7" stroke-width="2" stroke-linecap="round" stroke-linejoin="round"/>
<path d="M50.29 15L52.7338 16.4062" stroke="#3E1CE7" stroke-width="2" stroke-linecap="round" stroke-linejoin="round"/>
<path d="M50.29 11.25L52.7338 9.84375" stroke="#3E1CE7" stroke-width="2" stroke-linecap="round" stroke-linejoin="round"/>
<path d="M7.28729 50.6228C9.60021 46.6327 12.9259 43.3195 16.9304 41.016C20.9348 38.7126 25.4769 37.5 30.1004 37.5C34.724 37.5 39.2661 38.7128 43.2704 41.0163C47.2748 43.3199 50.6005 46.6331 52.9133 50.6233" stroke="#3E1CE7" stroke-width="2" stroke-linecap="round" stroke-linejoin="round"/>
<path d="M43.8867 28.5257C42.7608 31.0794 40.9424 33.2696 38.6359 34.8497C36.3295 36.4299 33.6266 37.3375 30.831 37.4704C28.0354 37.6034 25.258 36.9564 22.8111 35.6023C20.3642 34.2482 18.3448 32.2406 16.98 29.8053C15.6152 27.3699 14.9591 24.6034 15.0855 21.8168C15.2118 19.0302 16.1156 16.3339 17.6953 14.0312C19.2749 11.7285 21.4678 9.91066 24.0273 8.78205C26.5867 7.65344 29.4113 7.25882 32.1835 7.64257" stroke="#3E1CE7" stroke-width="2" stroke-linecap="round" stroke-linejoin="round"/>
</svg>
