<svg version="1.2" baseProfile="tiny-ps" xmlns="http://www.w3.org/2000/svg" viewBox="0 0 13 13" width="13" height="13">
	<title>Post</title>
	<style>
		tspan { white-space:pre }
		.shp0 { fill: #00376d } 
	</style>
	<g id="Post">
		<g id="social">
			<g id="icon_twitter">
				<path id="Shape" fill-rule="evenodd" class="shp0" d="M12.5 1.4L12.5 12.1C12.5 12.6 12.1 13 11.6 13L0.9 13C0.4 13 0 12.6 0 12.1L0 1.4C0 0.9 0.4 0.5 0.9 0.5L11.6 0.5C12.1 0.5 12.5 0.9 12.5 1.4ZM9.1 5.37C9.38 5.17 9.63 4.92 9.82 4.63C9.56 4.74 9.29 4.82 9 4.86C9.29 4.68 9.52 4.4 9.63 4.06C9.35 4.23 9.04 4.35 8.72 4.41C8.45 4.13 8.08 3.96 7.67 3.96C6.88 3.96 6.23 4.6 6.23 5.39C6.23 5.5 6.25 5.61 6.27 5.72C5.08 5.66 4.02 5.09 3.31 4.22C3.19 4.43 3.12 4.68 3.12 4.94C3.12 5.44 3.37 5.88 3.76 6.13C3.52 6.13 3.3 6.06 3.11 5.96C3.11 5.96 3.11 5.97 3.11 5.97C3.11 6.67 3.6 7.25 4.26 7.38C4.14 7.41 4.01 7.43 3.88 7.43C3.79 7.43 3.7 7.42 3.61 7.4C3.79 7.97 4.32 8.39 4.95 8.4C4.46 8.79 3.84 9.01 3.17 9.01C3.05 9.01 2.94 9.01 2.83 9C3.46 9.4 4.22 9.64 5.03 9.64C7.66 9.64 9.11 7.45 9.11 5.56C9.11 5.5 9.11 5.43 9.1 5.37Z" />
			</g>
		</g>
	</g>
</svg>