<svg version="1.2" baseProfile="tiny-ps" xmlns="http://www.w3.org/2000/svg" viewBox="0 0 13 13" width="13" height="13">
	<title>Post</title>
	<style>
		tspan { white-space:pre }
		.shp0 { fill: #00376d } 
		.shp1 { fill: #ffffff } 
	</style>
	<g id="Post">
		<g id="social">
			<g id="print">
				<path id="Rectangle" class="shp0" d="M0 2C0 0.9 0.9 0 2 0L10.5 0C11.6 0 12.5 0.9 12.5 2L12.5 10.5C12.5 11.6 11.6 12.5 10.5 12.5L2 12.5C0.9 12.5 0 11.6 0 10.5L0 2Z" />
				<g id="icon_print">
					<path id="Path" class="shp1" d="M7.72 8.5L5.28 8.5C5.13 8.5 5 8.61 5 8.75C5 8.89 5.13 9 5.28 9L7.72 9C7.87 9 8 8.89 8 8.75C8 8.61 7.87 8.5 7.72 8.5Z" />
					<path id="Shape" fill-rule="evenodd" class="shp1" d="M10 5.29L10 7.82C10 8.14 9.74 8.4 9.42 8.4L8.62 8.4L8.62 9.75C8.62 9.89 8.51 10 8.37 10L4.13 10C3.99 10 3.88 9.89 3.88 9.75L3.88 8.4L3.08 8.4C2.76 8.4 2.5 8.14 2.5 7.82L2.5 5.29C2.5 4.97 2.76 4.7 3.08 4.7L3.88 4.7L3.88 3.25C3.88 3.11 3.99 3 4.13 3L8.37 3C8.51 3 8.62 3.11 8.62 3.25L8.62 4.7L9.42 4.7C9.74 4.7 10 4.97 10 5.29ZM4.38 4.7L8.12 4.7L8.12 3.5L4.38 3.5L4.38 4.7ZM8.12 7.44L4.38 7.44C4.38 7.5 4.38 9.45 4.38 9.5L8.12 9.5C8.12 9.45 8.12 7.51 8.12 7.44Z" />
				</g>
			</g>
		</g>
	</g>
</svg>